#define skull_width 24
#define skull_height 24
static unsigned char skull_bits[] = {
   0x00, 0x00, 0x00, 0x00, 0x00, 0x00, 0x00, 0x20, 0x00, 0x00, 0xf9, 0x01,
   0x80, 0xdf, 0x07, 0xc0, 0xff, 0x03, 0xe0, 0x7f, 0x07, 0x00, 0x68, 0x00,
   0x10, 0x00, 0x08, 0x10, 0x00, 0x08, 0x00, 0x00, 0x00, 0x20, 0xe6, 0x04,
   0x80, 0xe7, 0x01, 0x80, 0xe7, 0x00, 0x20, 0xda, 0x04, 0x40, 0x18, 0x00,
   0x40, 0x19, 0x03, 0x80, 0x81, 0x01, 0x80, 0x00, 0x01, 0x80, 0x28, 0x00,
   0x00, 0x00, 0x00, 0x00, 0x00, 0x00, 0x00, 0x34, 0x00, 0x00, 0x00, 0x00 };
