#define skull_width 24
#define skull_height 24
static unsigned char skull_bits[] = {
   0xff, 0xff, 0xff, 0xff, 0xff, 0xff, 0xff, 0xff, 0xff, 0xff, 0x01, 0xff,
   0xff, 0x54, 0xff, 0x3f, 0x44, 0xfc, 0xbf, 0x02, 0xfd, 0x1f, 0x10, 0xf8,
   0x1f, 0x00, 0xf8, 0x1f, 0x00, 0xf8, 0x1f, 0x00, 0xf8, 0x3f, 0x42, 0xfc,
   0x3f, 0xe7, 0xfc, 0x3f, 0xe7, 0xfc, 0x3f, 0x10, 0xfc, 0x7f, 0x18, 0xfc,
   0x7f, 0x10, 0xfe, 0xff, 0x81, 0xff, 0xff, 0x00, 0xfe, 0xff, 0x6c, 0xfe,
   0xff, 0x01, 0xff, 0xff, 0xc1, 0xff, 0xff, 0xff, 0xff, 0xff, 0xff, 0xff };
