/* XPM */
static char * skull_xpm[] = {
"24 24 225 2",
"  	c None",
". 	c #822E14",
"+ 	c #B5421E",
"@ 	c #292625",
"# 	c #B84B29",
"$ 	c #AA5237",
"% 	c #612F1E",
"& 	c #B15536",
"* 	c #B35C41",
"= 	c #A15237",
"- 	c #B15F43",
"; 	c #B35E40",
"> 	c #714F42",
", 	c #2A3133",
"' 	c #77493A",
") 	c #B2745E",
"! 	c #AE6A52",
"~ 	c #8D5846",
"{ 	c #954327",
"] 	c #352925",
"^ 	c #5B5F61",
"/ 	c #332D25",
"( 	c #40484D",
"_ 	c #5D4C49",
": 	c #84645B",
"< 	c #5A4137",
"[ 	c #705A55",
"} 	c #67514B",
"| 	c #806059",
"1 	c #432D28",
"2 	c #9D6450",
"3 	c #845648",
"4 	c #413E3D",
"5 	c #706956",
"6 	c #68573C",
"7 	c #232526",
"8 	c #2E2829",
"9 	c #7E4333",
"0 	c #775C56",
"a 	c #AA5239",
"b 	c #8A4430",
"c 	c #454243",
"d 	c #535153",
"e 	c #725750",
"f 	c #723223",
"g 	c #592E20",
"h 	c #87795D",
"i 	c #D5CBB1",
"j 	c #F4E9CB",
"k 	c #CEC3A6",
"l 	c #AD9474",
"m 	c #CE9A78",
"n 	c #A97659",
"o 	c #825A42",
"p 	c #7B5F4A",
"q 	c #846959",
"r 	c #8A8574",
"s 	c #A79C7F",
"t 	c #D1BC9B",
"u 	c #EEE3C0",
"v 	c #625C4F",
"w 	c #E8DEBF",
"x 	c #F3E7C0",
"y 	c #F9EEC8",
"z 	c #FEFADF",
"A 	c #FDFCE8",
"B 	c #FEFCE6",
"C 	c #FEFDE5",
"D 	c #FFFCE4",
"E 	c #FFFDE9",
"F 	c #FFFEEC",
"G 	c #FEFAE3",
"H 	c #F7EEC9",
"I 	c #F3E8BF",
"J 	c #E9DFBF",
"K 	c #544E43",
"L 	c #D3C7A6",
"M 	c #ECE0B9",
"N 	c #F3E8C1",
"O 	c #F5EDCB",
"P 	c #F8F2D3",
"Q 	c #F7F1D3",
"R 	c #F1E8C1",
"S 	c #F5EEC8",
"T 	c #F9F4D5",
"U 	c #F7F1D0",
"V 	c #F5EDC9",
"W 	c #F2E8BF",
"X 	c #EFE4BC",
"Y 	c #998E73",
"Z 	c #CDBC94",
"` 	c #EDE3BF",
" .	c #FDF7DD",
"..	c #FCF7DF",
"+.	c #FFFDEB",
"@.	c #DECD9D",
"#.	c #EBE0BC",
"$.	c #FDF8E3",
"%.	c #FDF8E0",
"&.	c #FCF6DB",
"*.	c #EFE5C1",
"=.	c #D7C8A0",
"-.	c #998D73",
";.	c #575042",
">.	c #B6A37D",
",.	c #DACDA6",
"'.	c #8C7352",
").	c #634E36",
"!.	c #65553D",
"~.	c #DCCB9C",
"{.	c #DFCEA1",
"].	c #67563C",
"^.	c #54422D",
"/.	c #856C4C",
"(.	c #DFD2AD",
"_.	c #BFAD89",
":.	c #564F41",
"<.	c #BDAA87",
"[.	c #AE8D6B",
"}.	c #2E0B0A",
"|.	c #833929",
"1.	c #130000",
"2.	c #DED1B1",
"3.	c #E1D5B6",
"4.	c #1F0100",
"5.	c #733B2F",
"6.	c #1F0001",
"7.	c #A58664",
"8.	c #C7B593",
"9.	c #BCAA87",
"0.	c #B99273",
"a.	c #3D0001",
"b.	c #4A0A0C",
"c.	c #561C14",
"d.	c #D8CAA6",
"e.	c #D0C09A",
"f.	c #5A1B11",
"g.	c #571111",
"h.	c #3C0000",
"i.	c #B0896B",
"j.	c #C8B696",
"k.	c #4B4133",
"l.	c #E0D0AD",
"m.	c #E9DBBA",
"n.	c #AB6E57",
"o.	c #B88269",
"p.	c #E9D7B8",
"q.	c #76674C",
"r.	c #685940",
"s.	c #E3D1AF",
"t.	c #B88067",
"u.	c #A76A52",
"v.	c #E9D9B8",
"w.	c #EDE0C2",
"x.	c #494032",
"y.	c #857455",
"z.	c #E6D4AB",
"A.	c #F4E5C1",
"B.	c #EFE1BB",
"C.	c #E2D4AF",
"D.	c #31271D",
"E.	c #2D241A",
"F.	c #E3D5B3",
"G.	c #EFE0B8",
"H.	c #FFF8DA",
"I.	c #EEDDB5",
"J.	c #AA9872",
"K.	c #3E362C",
"L.	c #9E8358",
"M.	c #A89065",
"N.	c #D0B987",
"O.	c #EEE1C2",
"P.	c #786A57",
"Q.	c #706452",
"R.	c #EDE1C1",
"S.	c #9F8E6B",
"T.	c #A79064",
"U.	c #453A2E",
"V.	c #4D4032",
"W.	c #655437",
"X.	c #DACCA8",
"Y.	c #F1E7CA",
"Z.	c #F9F0D6",
"`.	c #F5EDD2",
" +	c #D8C8A3",
".+	c #3E3425",
"++	c #6E5C46",
"@+	c #594C3A",
"#+	c #B19F79",
"$+	c #A79467",
"%+	c #DACA9D",
"&+	c #CEB98A",
"*+	c #DFD0A4",
"=+	c #BAA06E",
"-+	c #B8A67A",
";+	c #BCAC8B",
">+	c #7D6C50",
",+	c #6E5D43",
"'+	c #F2E6C7",
")+	c #BDAB82",
"!+	c #AB9666",
"~+	c #A18B5C",
"{+	c #C9B485",
"]+	c #9D875B",
"^+	c #C5B186",
"/+	c #F6EACB",
"(+	c #998761",
"_+	c #C5B899",
":+	c #F8EBCA",
"<+	c #E3D6AF",
"[+	c #D2C196",
"}+	c #C8B68A",
"|+	c #E0D1A9",
"1+	c #F2E4BF",
"2+	c #D5C5A4",
"3+	c #C0B293",
"4+	c #E8D8B1",
"5+	c #ECDEB9",
"6+	c #ECDDB6",
"7+	c #EAD9B1",
"8+	c #D2C4A5",
"9+	c #685B48",
"0+	c #71634D",
"a+	c #72634D",
"b+	c #776954",
"                                                ",
"                                                ",
"                          .                     ",
"                +     @ # $ % & *               ",
"              = - ; > , ' ) ! ~ { ] ^           ",
"            / ( _ : < [ } | 1 2 3 4             ",
"          5 6 7 8 9 0 a b c d e f g h           ",
"          i j k l m n o p q r s t u i           ",
"        v w x y z A B C D E F G H I J v         ",
"        K L M N O P Q R S T U V W X L K         ",
"          Y Z `  ...+.@.#.$.%.&.*.=.-.          ",
"          ;.>.,.'.).!.~.{.].^./.(._.:.          ",
"            <.[.}.|.1.2.3.4.5.6.7.8.            ",
"            9.0.a.b.c.d.e.f.g.h.i.j.            ",
"          k.l.m.n.o.p.q.r.s.t.u.v.w.x.          ",
"            y.z.A.B.C.D.E.F.G.H.I.J.            ",
"            K.L.M.N.O.P.Q.R.N.S.T.U.            ",
"              V.W.X.Y.Z.Z.`. +.+++              ",
"              @+#+$+%+&+*+=+-+;+>+              ",
"              ,+'+)+!+~+{+]+^+/+(+              ",
"                _+:+<+[+}+|+1+2+                ",
"                  3+4+5+6+7+8+                  ",
"                    9+0+a+b+                    ",
"                                                "};
